<?xml version="1.0" standalone="no"?>
<!DOCTYPE svg PUBLIC "-//W3C//DTD SVG 20010904//EN"
 "http://www.w3.org/TR/2001/REC-SVG-20010904/DTD/svg10.dtd">
<svg version="1.0" xmlns="http://www.w3.org/2000/svg"
 width="887.000000pt" height="887.000000pt" viewBox="0 0 887.000000 887.000000"
 preserveAspectRatio="xMidYMid meet">
<metadata>
Created by potrace 1.14, written by Peter Selinger 2001-2017
</metadata>
<g transform="translate(0.000000,887.000000) scale(0.100000,-0.100000)"
fill="#000000" stroke="none">
<path d="M4225 8789 c-110 -44 -204 -82 -210 -83 -5 -2 -21 -8 -35 -13 -14 -6
-29 -12 -35 -13 -5 -2 -26 -11 -45 -21 -19 -11 -38 -19 -43 -19 -5 0 -32 -11
-60 -24 -29 -13 -99 -43 -157 -67 -58 -23 -109 -46 -115 -51 -5 -4 -17 -8 -27
-8 -10 0 -18 -4 -18 -8 0 -5 -6 -9 -12 -9 -7 0 -38 -12 -68 -26 -30 -13 -77
-35 -105 -47 -132 -57 -398 -177 -490 -220 -44 -21 -111 -52 -150 -70 -38 -18
-124 -58 -190 -90 -66 -31 -138 -65 -160 -76 -22 -10 -43 -23 -47 -28 -4 -6
-8 -8 -8 -4 0 4 -140 -63 -311 -149 l-310 -156 6 -46 c3 -24 13 -77 21 -115 8
-39 17 -82 19 -96 2 -14 6 -36 9 -50 3 -14 10 -52 15 -85 6 -33 13 -71 16 -85
3 -14 8 -43 10 -65 3 -22 10 -65 15 -95 5 -30 13 -75 16 -100 3 -25 7 -54 9
-65 2 -11 6 -45 9 -75 4 -30 9 -62 11 -70 2 -8 7 -44 10 -80 3 -36 8 -76 10
-90 2 -14 7 -59 10 -100 4 -41 8 -93 11 -115 2 -22 7 -80 10 -130 3 -49 7
-108 9 -130 15 -220 20 -478 20 -1030 -1 -631 -8 -961 -29 -1305 -2 -36 -7
-114 -10 -175 -3 -60 -8 -135 -11 -165 -2 -30 -7 -95 -10 -145 -3 -49 -7 -101
-10 -115 -2 -14 -6 -68 -10 -120 -4 -52 -8 -111 -10 -130 -2 -19 -7 -65 -10
-101 -3 -37 -8 -86 -10 -110 -6 -58 -14 -141 -21 -209 -3 -30 -7 -68 -9 -85
-2 -16 -7 -55 -10 -85 -3 -30 -7 -66 -9 -80 -2 -14 -7 -52 -10 -85 -4 -33 -9
-76 -12 -95 -3 -19 -7 -46 -9 -60 -1 -14 -6 -52 -10 -85 -4 -33 -9 -76 -12
-95 -2 -19 -5 -44 -7 -55 -1 -11 -6 -47 -11 -80 -4 -33 -9 -67 -10 -76 -2 -9
-6 -40 -10 -69 -4 -29 -9 -62 -11 -74 -2 -12 -6 -39 -9 -61 -3 -22 -7 -49 -9
-60 -2 -11 -7 -38 -10 -61 l-7 -40 129 -62 c107 -51 224 -105 327 -152 11 -5
60 -27 108 -50 49 -22 91 -40 93 -40 3 0 64 -27 159 -71 28 -13 52 -24 55 -24
9 -3 45 -18 98 -41 29 -13 55 -24 57 -24 3 0 24 -9 48 -19 117 -54 177 -79
177 -76 0 3 17 -4 38 -15 20 -10 123 -53 227 -94 105 -42 199 -80 210 -85 11
-5 45 -19 75 -31 30 -11 64 -25 75 -30 40 -17 190 -74 200 -77 14 -3 196 -72
220 -83 19 -9 348 -129 370 -134 6 -2 17 -6 25 -9 62 -25 121 -38 133 -30 6 6
26 13 42 17 17 4 53 15 80 26 28 11 156 57 285 104 129 46 246 89 260 94 14 6
59 23 100 37 41 15 84 31 95 36 11 5 52 20 90 34 39 14 79 29 90 34 11 5 34
14 50 20 17 6 44 16 60 22 17 7 32 13 35 14 3 1 14 5 25 10 11 4 119 47 240
96 324 128 533 214 700 289 11 5 43 19 70 31 28 12 70 31 95 42 25 11 47 21
50 22 3 0 21 8 40 17 19 9 109 51 200 93 188 87 253 123 245 134 -3 5 -7 33
-10 63 -3 30 -7 63 -9 74 -2 10 -7 44 -11 74 -4 30 -9 64 -12 75 -9 45 -12 62
-17 105 -3 25 -8 56 -11 70 -2 13 -7 40 -10 60 -3 20 -7 47 -10 60 -3 14 -10
52 -16 85 -5 33 -12 71 -15 85 -2 14 -7 41 -10 60 -3 19 -9 51 -14 70 -4 19
-12 58 -16 85 -4 28 -8 52 -9 55 -5 22 -18 89 -20 105 -2 11 -12 65 -24 120
-11 55 -22 111 -25 125 -6 31 -76 368 -82 395 -2 11 -7 35 -10 54 -3 19 -10
45 -15 59 -5 14 -7 27 -5 29 3 3 1 16 -4 29 -6 14 -12 35 -14 47 -5 26 -35
155 -41 177 -2 8 -4 23 -4 32 -1 16 -13 18 -116 15 -63 -1 -115 -4 -115 -7 0
-3 -35 -6 -78 -6 -74 -1 -199 -9 -313 -19 -30 -3 -80 -7 -112 -9 -32 -3 -63
-8 -69 -12 -7 -5 -8 -2 -3 6 5 9 4 11 -3 6 -6 -4 -31 -9 -54 -11 -140 -14
-165 -17 -188 -20 -14 -2 -56 -6 -95 -10 -38 -3 -81 -7 -95 -10 -14 -3 -45 -7
-70 -10 -97 -12 -126 -16 -145 -20 -11 -2 -26 -4 -32 -4 -10 -1 -13 -131 -15
-598 -2 -392 -6 -597 -13 -596 -5 0 -18 -3 -28 -9 -10 -5 -26 -11 -35 -13 -9
-3 -51 -16 -92 -30 -41 -15 -82 -28 -90 -30 -8 -2 -69 -20 -135 -40 -66 -19
-129 -38 -140 -40 -11 -2 -60 -16 -110 -29 -49 -14 -101 -28 -115 -30 -14 -3
-63 -14 -109 -25 -74 -17 -89 -18 -125 -6 -108 35 -243 77 -256 80 -15 3 -97
31 -135 46 -41 15 -60 22 -70 25 -12 3 -204 72 -225 81 -8 3 -17 7 -20 8 -3 1
-18 7 -35 14 -16 6 -36 14 -42 16 -7 2 -13 21 -14 42 0 21 -2 99 -5 173 -2 74
-5 276 -8 448 -2 172 -6 315 -9 318 -3 3 -2 18 2 32 4 15 5 39 1 53 -4 15 -4
33 1 40 4 7 5 18 1 24 -11 17 -11 2525 0 2525 7 0 7 5 1 13 -9 13 -9 297 1
322 3 8 1 15 -5 15 -6 0 -7 5 -3 11 3 6 8 128 9 272 2 144 4 285 4 314 1 50 2
52 39 64 20 6 42 15 47 19 8 5 99 42 115 46 3 0 21 8 40 16 19 8 103 41 185
73 83 31 159 61 170 65 11 4 44 17 74 29 29 12 57 21 62 21 4 0 20 5 36 12 15
6 33 12 38 14 6 2 28 10 50 17 48 18 28 22 265 -57 240 -80 260 -87 285 -96
11 -5 34 -13 50 -19 17 -6 44 -16 60 -22 17 -7 35 -13 40 -15 6 -1 35 -12 65
-24 30 -12 69 -26 85 -32 17 -6 32 -13 35 -15 2 -2 5 -65 6 -139 1 -74 5 -142
8 -150 3 -8 1 -14 -5 -14 -6 0 -7 -5 -4 -11 6 -9 11 -233 19 -840 1 -129 5
-240 9 -246 5 -8 104 -10 345 -8 362 4 474 9 710 31 31 3 84 7 117 9 33 2 60
5 60 5 0 1 14 3 30 5 17 2 50 6 75 9 25 2 65 7 90 11 25 3 58 8 73 10 32 4 40
9 43 28 1 7 5 37 9 67 4 30 8 62 10 70 3 14 6 33 21 128 3 20 7 46 9 57 1 11
6 43 10 70 6 50 8 60 19 125 3 19 8 51 11 70 2 19 6 44 9 55 2 11 7 45 11 75
4 30 9 64 11 75 2 11 6 38 9 60 2 22 6 49 9 60 3 18 11 66 21 135 2 14 9 54
14 90 5 36 13 83 16 105 3 23 7 52 10 65 2 13 9 60 15 104 11 80 16 111 24
151 2 11 7 43 10 70 12 87 17 119 21 145 3 14 7 43 10 65 3 22 8 51 10 65 3
14 7 45 10 70 3 25 13 90 21 145 8 55 17 118 20 140 3 22 7 51 10 65 6 32 14
87 19 125 12 92 17 133 21 155 3 14 7 45 9 70 3 25 7 56 10 70 3 14 7 45 10
70 3 25 8 63 11 85 14 89 11 107 -16 111 -43 6 -73 11 -135 22 -57 10 -90 16
-167 27 -72 10 -106 14 -173 20 -38 4 -81 8 -94 10 -12 2 -60 7 -105 10 -44 3
-107 8 -139 11 -97 8 -272 15 -465 18 -100 2 -185 6 -188 8 -14 15 -44 -8 -55
-41 -6 -20 -17 -49 -24 -66 -7 -16 -20 -52 -30 -80 -9 -27 -24 -66 -32 -86
l-16 -36 -126 62 c-147 73 -223 109 -233 109 -4 1 -13 7 -19 14 -7 6 -17 12
-21 12 -5 0 -52 20 -105 45 -52 25 -97 45 -99 45 -3 0 -37 15 -77 33 -40 19
-88 41 -107 49 -19 9 -56 25 -82 37 -56 25 -101 44 -108 45 -3 1 -21 9 -40 18
-34 16 -188 78 -193 78 -1 0 -92 -37 -202 -81z"/>
</g>
</svg>
