<?xml version="1.0" encoding="utf-8"?>
<!-- Generator: Adobe Illustrator 23.0.3, SVG Export Plug-In . SVG Version: 6.00 Build 0)  -->
<svg version="1.2" baseProfile="tiny" id="Layer_1" xmlns="http://www.w3.org/2000/svg" xmlns:xlink="http://www.w3.org/1999/xlink"
	 x="0px" y="0px" viewBox="0 0 572.6 887.4" xml:space="preserve">
<path fill="#FFFFFF" d="M527.6,340.6c12.6-82.2,33.3-213.6,45-303.3c-45.4-9.4-95.2-12.6-153.8-13.2c-2.9,7.7-8.5,22.9-11.3,30.7
	c-32.1-16-88.1-41.8-121-54.8C206.1,30.6,94.7,80.3,5.5,126.9c19.3,93.3,24.7,159.4,24.7,261.3c0,151.5-14,278.9-30.2,383.7
	c73.3,35.8,196.1,87.1,280.1,115.5c114.3-39.8,220.9-82.9,288-116.5c-5.8-49.5-25.8-154.3-42.1-223.1
	c-47.1,1.5-111.6,7.2-149.6,13.2v118.8c-21.4,8.1-66.9,21.3-95.2,27.1c-25.1-7.3-56.7-18.1-84-28.8c-2.3-74.9-2.9-205.8-2.9-275.5
	c0-52.8,1-145.1,1.9-189.8c29.8-12.2,59.2-24,89.7-34.3c28.3,8.6,57.4,18.9,85,29.7c0.7,37.5,1.8,101.6,2.2,140.6
	C420.2,351,477,347.6,527.6,340.6z"/>
<path fill="#CE0E2D" d="M402.3,583.7v114.2c-39,14.2-79,26.6-122.3,35.6c-36.9-11.3-73.4-23.6-108.4-37.7
	c-2-85.5-4.3-201.1-3.3-293.7c0.8-73.8,0.4-135.9,2.3-206.8c36.3-16,80.6-32.7,114.8-44.3c39.3,11.7,74.6,24.8,111.2,39
	c0.5,28.4,1.9,95.2,2.3,133.5c26.7,1,63.8-1.7,106.1-6.5c13.3-86.6,26.9-176.3,39-258.3c-32.8-5.7-71.6-7.9-107.2-8.4l-15.1,40.8
	c-43.9-22.6-88-43.5-135.6-63.2C198.2,62.3,117.1,99,34.6,141C49.9,219.7,56,281.7,56,388c0,139.3-12.3,269-27.5,368.4
	c83.3,39,164.4,72.6,251.5,103.2c89.1-31.2,176.7-64.7,259.8-104.3c-4.8-35.4-20.4-118.8-34.5-180.8
	C471.5,576.2,437.6,579.2,402.3,583.7z"/>
</svg>
