<?xml version="1.0" encoding="utf-8"?>
<!-- Generator: Adobe Illustrator 23.0.3, SVG Export Plug-In . SVG Version: 6.00 Build 0)  -->
<svg version="1.2" baseProfile="tiny" id="Layer_1" xmlns="http://www.w3.org/2000/svg" xmlns:xlink="http://www.w3.org/1999/xlink"
	 x="0px" y="0px" viewBox="0 0 1608 563" xml:space="preserve">
<g>
	<g>
		<path fill="#07295B" d="M1608,264c-3.6,4.2-6.9,8.7-10.7,12.6c-15.4,15.6-31,31.1-46.7,46.4c-1.8,1.8-4.9,2.7-7.5,3.1
			c-31.5,4-63.1,7.7-94.6,11.7c-31,4-62,8-93,12.4c-34.1,4.8-68.1,10-102.2,15.2c-31.7,4.8-63.5,9.6-95.2,14.8
			c-33.6,5.5-67.2,11.3-100.8,17.1c-29.3,5.1-58.6,10.3-87.8,15.8c-40.4,7.5-80.7,15.1-121,23.2c-35.5,7.1-71,14.5-106.4,22.3
			c-44.5,9.8-88.9,19.9-133.2,30.3c-33.2,7.8-66.2,16.2-99.2,24.7c-28.6,7.4-57,15.5-85.6,23.1c-1.8,0.5-4,0.3-5.7-0.4
			c-35.7-14.7-71.6-29.2-107.1-44.6C284,479.8,257.1,466.7,230,454c-0.5-0.2-1-0.7-2.2-1.5c423.5-69.1,847.2-131.5,1272.8-187.3
			c-14.4-10.7-28.7-21.3-43-31.9c-9.4,7.5-18.2,14.5-26.9,21.5c-24.8-0.9-49.2-1.6-73.2-7.5c0-14.6,0-28.8,0-43.5
			c-20.6,25-41.8,48.9-67.9,68.6c-21.2-10-37.5-25.2-50.1-45.6c11.1-34.4,22.1-68.9,33.2-103.3c-0.5-0.3-1-0.6-1.4-0.9
			c-5.5,4.9-11,9.8-16.5,14.7c-1.6,1.4-3,3.1-4.7,4.4c-4.3,3.5-6.5,8-7.7,13.4c-5.7,27.3-11.6,54.5-17.5,81.8
			c-2.6,12.3-5.3,24.6-8,37.3c-24,3.4-48,6.7-72.4,10.1c1.7-7.9,3.3-15.2,5.1-23.6c-18.5,11.7-36.2,23-54.1,34.4
			c-10.1-6-14.4-16.2-20-25.6c-17.4,13.4-34.8,26.7-52.2,40c-14-8.6-22.8-21.3-31.3-34.5c-25.7,15.2-51.2,30.4-77.8,46.2
			c-6-9.8-11.7-19.4-17.5-28.8c-22.1,13.2-44.5,26.7-67.1,40.2c-10.6-6.5-15-17.1-20.8-27.4c-20.5,14.4-41,28.7-61.7,43.2
			c-16.6-12.5-27-29.4-35.3-47.9c5.3-22.1,10.6-44,15.6-65c-11.4-6.4-22.1-12.4-33-18.5c-0.1,0.1-0.4,0.3-0.7,0.4
			c-9.3,6.4-12.3,15.9-14.2,26.6c-6,34.4-12.6,68.7-19,103c-0.3,1.8-0.5,3.6-0.8,5.6c-24.2,3.4-48.2,6.7-72.8,10.2
			c1.7-7.9,3.3-15.3,5-23.6c-18.3,11.6-36,22.9-53.9,34.4c-10.4-5.6-14.5-16.4-20.2-25.6c-17.5,13.4-34.8,26.7-52.1,40
			c-13-8.1-21.5-19.4-29.1-31.1c-24.7,13.9-49.3,27.6-74,41.4c-10.8-7.4-15.5-18.3-21.1-28.6c-20.7,14.9-41.5,29.8-62.3,44.8
			c-15.8-12.6-27.3-27.9-37-45.3c8.1-54.2,24.8-106.8,38.8-160.2c23.6-3.3,47-6.6,70.2-9.9c-10.6,42.3-21.1,84.3-32,128
			c8.3-4.4,15.2-8,22.1-11.7c9.2-39.7,18.4-79.1,27.6-118.8c23.3-3.3,46.5-6.6,70.4-9.9c-9.4,42.9-18.7,85.2-28.2,128.5
			c6.3-3,11.7-5.6,17.2-8.3c4.8-20.3,9.5-40.3,14.4-60.3c0.7-2.9,2.3-6,4.3-8.1c19.2-19.8,38.7-39.5,58.1-59.1
			c1.3-1.3,3.4-2.2,5.2-2.5c26.2-3.8,52.4-7.4,78.6-11.1c7.9-1.1,15.8-2.4,24.6-3.7c-9.2,41.7-18.3,82.8-27.7,125
			c7.2-3.8,13.8-7.2,20.1-10.6c8.8-39.1,17.5-77.6,26.4-117c19.3-2.7,39-5.5,59.3-8.4c-0.2,3.6-0.4,6.9-0.6,11.1
			c10.5-8.1,20.4-15.9,30.1-23.5c12.1,13.1,24,26.1,35.6,38.8c14.6-14.3,28.5-27.8,42.5-41.5c11.9-1.7,23.9-3.4,36.4-5.2
			c8.1-37.1,16.1-74.1,24.3-111.6c23.1-3.2,46.2-6.5,70-9.8c-17.3,78.8-34.4,157-51.8,236.4c7.6-3.9,14.5-7.5,21.2-10.9
			c9-39.1,17.9-77.8,26.9-117c22.6-3.2,45.2-6.4,68.5-9.6c-9.2,41.7-18.2,83-27.5,125.2c7-3.5,13.2-6.6,19.5-9.8
			c3-12.6,6.1-25,9-37.4c1.6-6.8,3.1-13.6,4.8-20.4c0.5-1.8,1.5-3.8,2.8-5.1c18.6-19,37.7-37.6,55.9-57c6.3-6.7,13.9-6.4,21.3-7.5
			c29.3-4.4,58.6-8.3,88-12.4c0.6-0.1,1.3,0,2.4,0c-9.2,41.4-18.3,82.5-27.6,124.5c7.2-3.7,13.6-7.1,20.1-10.4
			c8.8-39.1,17.6-78,26.5-117.1c19.1-2.7,38.2-5.4,57.5-8.1c0.4,3.5,0.9,6.9,1.3,10.4c18.2-9.8,36.2-19.6,54.4-29.4
			c17.4,16.7,33.5,33.2,46.1,53.2c-7.4,20.1-14.8,40.2-22,60c6.8-5.2,37-45.9,51.4-72.3c-4.5-8.4-9.1-17-14.1-26.3
			c22.2-11.8,44.1-23.5,66.5-35.4c24.2,50.5,44.1,101.9,55.1,155.3c20.2,10.5,40.4,19.7,59.2,31c19.8,11.9,38.3,25.7,57.4,38.7
			c1.6,1.1,3.3,1.9,4.9,2.8C1608,262,1608,263,1608,264z M571.5,309.1c-0.7-0.5-1.5-1-2.2-1.4c8.4-43.3,19.3-86,27.9-130
			c-8.6,1-16.3,1.9-24,2.8c-4.8,0.6-9.5,1.3-14.2,2c-12.5,1.8-24.9,4-37.4,5.4c-4.7,0.5-8.4,2-11.7,5.3
			c-15.2,15.2-30.5,30.2-45.5,45.5c-4.6,4.7-8.8,9.7-10.3,16.6c-4.4,20-9.3,40-14.1,60.4c-14.2,6.5-27.8,13.9-43.6,18.1
			c7.3-44.3,18.1-87.6,27-132.2c-15,2.2-29.2,4.3-43.6,6.4c-8.9,38.5-17.8,76.8-26.8,115.7c-14.4,7.6-29.4,15.5-45.7,24.1
			c-0.8-4.2-2.3-7.5-1.7-10.3c3.2-15.9,6.8-31.8,10.6-47.5c4.2-17.6,8.9-35.1,13.3-52.6c1.9-7.6,3.7-15.2,5.7-23.4
			c-14.8,2.2-28.6,4.2-42.8,6.3c-0.6,1.1-1.6,2.3-1.9,3.6c-2.4,9-4.7,18-7.1,26.9c-5.6,21.2-11.6,42.3-16.8,63.6
			c-3.7,15-6.1,30.2-9.4,45.3c-0.9,4.3-0.7,7.9,1.7,11.8c6.1,9.9,13.7,18.5,22.1,27c22.3-16.5,44.3-32.7,66.2-48.9
			c5.1,11.9,9.7,23.1,17.8,33.1c25.6-14.6,50.8-28.9,76.3-43.4c6.8,11.8,13.9,23.7,24.9,32.9c19.2-15,38-29.7,56.5-44.2
			c5.3,10.1,10.6,20,15.9,30c24.5-15.5,48-30.3,72.5-45.8c-2.7,12.7-5.2,24-7.6,35.4c15.4-2.2,30.2-4.2,45.3-6.3
			c0.2-0.9,0.5-1.8,0.7-2.8c2.9-17,5.7-34.1,8.8-51.1c3.2-16.8,6.7-33.5,10.3-50.3c1.2-5.7,1.4-12.3,4.6-16.6
			c5.9-7.7,13.7-14,20.7-20.8c12.5,8.2,23.1,18.5,37.1,22.7c5.4-4.9,10.2-9.2,15-13.5c-1.2,8.9-3.5,17.2-5.5,25.6
			c-4.7,19.7-9.4,39.4-14,59.1c-0.6,2.5-1.1,5.7,0,7.8c5.6,11.1,12.1,21.6,21.4,30.9c22-15.6,43.9-31,65.8-46.5
			c5.4,10.4,10.7,20.6,16.5,31.8c25.4-15.6,49.5-30.4,73.7-45.3c4.3,10.2,8.7,20.9,13.4,32.2c26.8-16.1,52.8-31.7,79.1-47.4
			c7.6,13.6,15.2,26.5,26.9,36.5c19-14.9,37.8-29.5,56.5-44.2c5.2,9.8,10.4,19.6,16,30c24.1-15.2,47-29.8,69.9-44.3
			c0.3,0.4,0.6,0.7,0.8,1.1c-2.5,10.9-5,21.9-7.5,33.1c15.6-2.2,30.2-4.3,45.7-6.5c8.6-39.9,17.2-80.4,26-121
			c14-12.5,28-25.1,42.3-37.9c4.4,5.9,8.2,10.7,11.7,15.8c1,1.5,1.7,3.9,1.2,5.5c-4.5,13.6-9.6,27.1-14.1,40.7
			c-5.9,18.1-11.6,36.3-17,54.6c-0.8,2.7,0,6.8,1.7,9.1c6.6,9.1,14.8,16.8,24.2,23c2.5,1.6,5.1,3,7.7,4.6
			c46.6-40.8,82.7-88.8,113.1-142.2c14,30.1,22.3,61.1,26.8,92.9c-1.6,2.2-3,4-4.7,6.4c-18.6-6.1-36.3-14.2-53.9-25.6
			c0,17.1,0,32.9,0,49.1c19.5,1.7,38.4,3.3,56.5,4.9c10.4-8.6,19.9-16.4,29.5-24.4c26.8,15.4,50.6,34.6,73.6,56.7
			c-420.7,53.9-839.2,114.1-1256.4,183.4c15.5,7.6,30.8,14.8,46.2,21.4c17.9,7.7,35.9,15,53.8,22.5c13.7,5.7,27.4,11.6,41.2,17.2
			c3.9,1.6,8.3,3.1,12.4,2.9c4.6-0.2,9.2-2.2,13.8-3.5c15.5-4.3,31-8.6,46.6-12.8c11.3-3,22.7-5.7,34.1-8.7
			c17.1-4.4,34.2-9.1,51.3-13.4c9.9-2.5,20-4.6,30-7c16.3-3.8,32.5-7.6,48.8-11.3c15.2-3.5,30.4-6.7,45.6-10.1
			c11.8-2.6,23.5-5.2,35.3-7.9c7.4-1.7,14.8-3.4,22.2-5c11-2.3,22-4.6,33-6.8c10.9-2.2,21.8-4.2,32.6-6.5c8.2-1.7,16.3-3.8,24.6-5.5
			c7.9-1.6,16-2.8,23.9-4.3c13.3-2.6,26.5-5.2,39.8-7.9c4.4-0.9,8.8-1.7,13.1-2.6c8.6-1.7,17.1-3.6,25.7-5.2
			c8.9-1.7,17.9-3,26.8-4.6c9.1-1.7,18.1-3.7,27.2-5.3c8.9-1.6,18-2.6,26.9-4.3c17-3.1,34-6.6,51-9.7c8-1.5,16-2.6,24-4
			c16-2.7,31.9-5.5,47.9-8c14.3-2.3,28.7-4.2,43.1-6.3c5.1-0.7,10.2-1.5,15.2-2.4c10.3-1.7,20.5-3.6,30.8-5.3
			c11.9-1.9,23.9-3.5,35.9-5.2c11.8-1.7,23.6-3.4,35.4-5.1c10.4-1.5,20.7-2.8,31.1-4.3c11.8-1.7,23.6-3.7,35.4-5.4
			c8.2-1.2,16.4-2,24.6-3.1c11.8-1.6,23.6-3.5,35.5-5c12.5-1.6,25.1-2.7,37.6-4.2c21.9-2.7,43.7-5.6,66.6-8.5
			c17.2-13.9,33.4-30.1,48.1-48.2c-35.7-27.8-73.6-49.3-114.4-66c-10.9-51.8-28.1-101.3-50.5-149.8c-14.7,7.7-29.2,15.4-44.1,23.3
			c4.2,8.1,7.9,15.4,11.7,22.8c-22.4,41.4-51.7,77.2-84.4,111.2c-2.3-2-4.1-3.6-6.3-5.5c11-30.9,22.1-61.8,33.4-93.6
			c-11.3-12.7-22.6-25.5-34.4-38.8c-22,12.8-43.1,25.1-64.5,37.6c-0.4-6-0.9-12-1.4-18.9c-12.5,1.9-24.6,3.7-36.2,5.5
			c-1.1,4.3-2,7.6-2.7,11c-4.5,19.9-8.9,39.8-13.4,59.7c-2.8,12.5-6,24.9-8.3,37.4c-0.9,4.7-3,7-7,9.1c-9.5,4.8-18.8,10-28.2,15.1
			c-3.4,1.8-6.9,3.4-11.7,5.8c-0.2-16.1,5.3-29.9,7.8-44.2c2.6-14.7,6.3-29.2,9.5-43.8c3.2-14.5,6.5-29,10-44.4
			c-11.4,1.9-21.6,3.8-31.9,5.2c-11.7,1.6-23.4,2.6-35.1,4.3c-8.9,1.3-18.6,1.3-24.8,9.9c-1.2,1.7-2.8,3.2-4.3,4.7
			c-14.4,14.7-28.8,29.5-43.2,44.2c-1.2,1.3-2.6,2.8-3,4.4c-2.9,11.9-5.6,23.9-8.4,35.9c-2,8.7-4.2,17.4-6.1,25.3
			c-15.6,7.8-30.1,15-45,22.4c-1-2.6-1.6-4.3-2-5.2c9.3-42.4,18.4-84,27.6-126.4c-14.8,2.2-28.3,4.2-41.8,6.2
			c-8.8,38.2-17.6,76-26.4,114.1c-15.5,8-31.4,16.2-47.4,24.5c-0.6-0.3-1.2-0.5-1.9-0.8c17.2-80.6,35.1-161,52.6-242.5
			c-15,2-28.9,3.9-43.1,5.8c-7.9,37-15.9,74-24,111.5c-14.1,2-28,4-42.1,6.1c-14.6,15.2-29.5,30.7-45.3,47.1
			c-13.4-12.8-26.4-25.3-40.1-38.4c-13.1,10.2-26.6,20.7-40.4,31.5c0-7.9,0-15,0-22.6c-11.8,1.7-23.4,3.3-35.5,5
			c-8.6,38.2-17.2,76.4-25.7,114.1C601.8,293.2,586.6,301.1,571.5,309.1z M1413.4,199c0.6-0.5,1.2-1,1.7-1.5
			c-4.7-17.9-9.4-35.8-14.3-54.7c-8.6,12.9-16.2,24.3-24.5,36.7C1388.7,186,1401,192.5,1413.4,199z"/>
		<path fill="#07295B" d="M1,286c3.8-7.6,7.8-15.2,11.4-22.8c11.4-24,22.2-48.2,34-71.9C60.9,162,76,133.1,91.1,104.1
			c4.7-9.1,10-17.9,15.3-27.4c49.3-6.7,98.6-13.4,147.7-20.1c4.2,8.4,15.7,72.1,14.8,82.1c-38.8,3.5-77.7,7-117.4,10.6
			c-12,22.4-24.4,44.9-36,67.8c-11,21.7-21.3,43.8-31.5,65.9c-1.3,2.8-1.4,6.7-0.8,9.9c3.8,22.3,7.8,44.5,11.8,66.9
			c2.1,0.6,3.8,1.2,6.2,1.9c20.1-14.3,40.3-28.7,59.9-42.6c2-7.6,3.7-13.9,5.7-21.4c-14.5-2.8-28.9-5.5-44.5-8.5
			c5.9-20.3,11.8-40.4,17.7-60.5c40.6-5.7,80.1-11.2,120.2-16.9c-23.8,100.6-47.5,200.7-71.5,302c-18.9,10.2-38.1,20.7-57.5,30.9
			c-10.9,5.7-22,10.9-33,16.4c-0.8,0.4-1.5,1.2-2.2,1.8c-0.3,0-0.7,0-1,0c0-0.6-0.2-1.3-0.1-1.9c9.4-33.4,18.7-66.7,28.1-100.1
			c3.9-14,7.9-27.9,11.9-41.9c-0.2-0.1-0.4-0.2-0.6-0.3c-9.9,11.5-19.7,23-29.6,34.5c-25.5-1.7-49.6-8.2-73.9-16.1
			c-4.2-17.3-8.8-34.4-12.4-51.8c-4.3-20.5-7.9-41.1-11.6-61.7C4.7,312.2,2.9,300.6,1,289C1,288,1,287,1,286z M114.9,88.8
			c-1.5,2.2-3.5,4.8-5.1,7.8c-12.9,24.4-25.9,48.8-38.5,73.3C61.9,188.3,53,207,43.9,225.7c-7.3,15-14.9,29.9-21.5,45.3
			c-4,9.4-10.1,17.9-6.9,30c4.5,17,5.8,34.9,9.1,52.3c3.4,17.8,7.5,35.4,11.5,53c1.6,7.2,3.6,14.4,5.5,22.1
			c19.3,4.4,38.3,8.7,56.7,12.8c21.8-25.4,42.6-49.7,63.5-73.9c0.2,0.1,0.5,0.2,0.7,0.4c-16,56.8-32,113.7-48,170.5
			c0.4,0.3,0.8,0.6,1.1,0.9c20.7-11.1,41.4-22.3,62.2-33.4c21.9-92.8,43.8-185.2,65.9-278.7c-31.7,4.5-62.3,8.8-93.8,13.3
			C146,253,142,266,138,279c15.2,3.2,29.5,6.3,43.5,9.2c0.2,1.5,0.4,2.2,0.3,2.8c-2.6,9.7-5,19.5-8.2,29.1c-1.2,3.7-3.7,7.6-6.8,9.9
			c-19.9,14.5-40,28.6-60.2,42.8c-1.1,0.8-2.8,1.5-4.1,1.3c-6.1-1-12.2-2.3-18.4-3.5c-5.3-29-10.5-57.2-15.6-85.4
			c23.2-50.2,47.4-99.6,75.9-148c36.7-3.3,73.8-6.6,112-10c-3.7-19.1-7.2-37.6-10.7-55.9c-5.4,0.4-9.9,0.6-14.4,1.2
			c-13.1,1.7-26.1,3.6-39.2,5.3c-8.3,1.1-16.7,2-25.1,3.1c-4.1,0.5-8.2,1-12.3,1.6C141.9,84.5,129,86.5,114.9,88.8z"/>
		<path fill="#07295B" d="M1029,1c-6.5,16.3-13,32.5-19.5,48.8c-1.1,2.8-2.6,5.4-3.3,8.3c-4.9,20.8-20.9,33.3-35.3,48.4
			c-12.5-12.7-25-25.3-36.9-37.3c3.2-14.4,6.1-27.5,9.2-41.4c26.6-8.2,53.2-16.5,79.8-24.8c1.4-0.4,2.7-1.3,4.1-2
			C1027.7,1,1028.3,1,1029,1z M1008.7,19.4c-19.3,6.4-37.5,12.5-55.4,18.4c-1.8,8.2-3.9,15.5-5,23c-0.4,2.6,1.1,6.1,2.9,8.3
			c4.7,5.6,9.9,10.6,15,15.8c1.3,1.4,2.9,2.4,5.5,4.5c6.3-8.1,13.2-15.3,17.9-23.7c5.1-9,8-19.2,11.9-28.9
			C1003.8,31.4,1006,26,1008.7,19.4z"/>
		<path fill="#D82032" d="M571.5,309.1c15.1-8,30.3-15.9,46-24.2c8.5-37.6,17.1-75.9,25.7-114.1c12.1-1.7,23.7-3.3,35.5-5
			c0,7.6,0,14.7,0,22.6c13.8-10.7,27.3-21.2,40.4-31.5c13.7,13.2,26.7,25.6,40.1,38.4c15.8-16.5,30.6-31.9,45.3-47.1
			c14.2-2,28.1-4,42.1-6.1c8.1-37.5,16-74.6,24-111.5c14.2-1.9,28.1-3.8,43.1-5.8c-17.4,81.5-35.4,161.9-52.6,242.5
			c0.6,0.3,1.2,0.5,1.9,0.8c15.9-8.2,31.9-16.5,47.4-24.5c8.8-38.2,17.6-75.9,26.4-114.1c13.5-2,27-4,41.8-6.2
			c-9.3,42.4-18.4,84-27.6,126.4c0.3,0.9,1,2.6,2,5.2c14.9-7.4,29.4-14.7,45-22.4c1.9-7.9,4.1-16.6,6.1-25.3
			c2.8-12,5.5-23.9,8.4-35.9c0.4-1.6,1.8-3.2,3-4.4c14.4-14.8,28.8-29.5,43.2-44.2c1.5-1.5,3.1-3,4.3-4.7c6.2-8.6,15.8-8.6,24.8-9.9
			c11.6-1.7,23.4-2.7,35.1-4.3c10.3-1.4,20.5-3.3,31.9-5.2c-3.5,15.4-6.8,29.9-10,44.4c-3.2,14.6-6.9,29.1-9.5,43.8
			c-2.5,14.3-8.1,28.2-7.8,44.2c4.8-2.4,8.3-4,11.7-5.8c9.4-5,18.7-10.3,28.2-15.1c4-2,6.2-4.4,7-9.1c2.3-12.6,5.5-24.9,8.3-37.4
			c4.5-19.9,8.9-39.8,13.4-59.7c0.8-3.4,1.7-6.7,2.7-11c11.6-1.8,23.7-3.6,36.2-5.5c0.5,6.9,1,12.9,1.4,18.9
			c21.4-12.5,42.5-24.8,64.5-37.6c11.8,13.3,23.1,26,34.4,38.8c-11.4,31.8-22.4,62.7-33.4,93.6c2.2,2,4,3.5,6.3,5.5
			c32.6-33.9,62-69.8,84.4-111.2c-3.8-7.4-7.6-14.7-11.7-22.8c14.9-7.9,29.5-15.5,44.1-23.3c22.4,48.5,39.6,97.9,50.5,149.8
			c40.8,16.6,78.7,38.2,114.4,66c-14.7,18.1-31,34.3-48.1,48.2c-22.9,2.9-44.8,5.8-66.6,8.5c-12.5,1.5-25.1,2.7-37.6,4.2
			c-11.8,1.5-23.6,3.4-35.5,5c-8.2,1.1-16.4,1.9-24.6,3.1c-11.8,1.7-23.6,3.7-35.4,5.4c-10.3,1.5-20.7,2.9-31.1,4.3
			c-11.8,1.7-23.6,3.4-35.4,5.1c-12,1.7-24,3.4-35.9,5.2c-10.3,1.6-20.5,3.5-30.8,5.3c-5.1,0.9-10.2,1.6-15.2,2.4
			c-14.4,2.1-28.7,4.1-43.1,6.3c-16,2.5-31.9,5.3-47.9,8c-8,1.3-16,2.5-24,4c-17,3.2-34,6.6-51,9.7c-8.9,1.6-18,2.7-26.9,4.3
			c-9.1,1.6-18.1,3.6-27.2,5.3c-8.9,1.6-17.9,3-26.8,4.6c-8.6,1.6-17.1,3.5-25.7,5.2c-4.4,0.9-8.8,1.7-13.1,2.6
			c-13.3,2.6-26.5,5.3-39.8,7.9c-8,1.5-16,2.7-23.9,4.3c-8.2,1.7-16.4,3.8-24.6,5.5c-10.9,2.3-21.7,4.3-32.6,6.5
			c-11,2.2-22,4.5-33,6.8c-7.4,1.6-14.8,3.4-22.2,5c-11.7,2.6-23.5,5.3-35.3,7.9c-15.2,3.4-30.4,6.7-45.6,10.1
			c-16.3,3.7-32.5,7.5-48.8,11.3c-10,2.3-20,4.4-30,7c-17.1,4.4-34.2,9-51.3,13.4c-11.3,2.9-22.8,5.6-34.1,8.7
			c-15.6,4.2-31.1,8.5-46.6,12.8c-4.6,1.3-9.2,3.3-13.8,3.5c-4.1,0.1-8.4-1.3-12.4-2.9c-13.8-5.5-27.4-11.4-41.2-17.2
			c-17.9-7.5-36-14.8-53.8-22.5c-15.5-6.7-30.8-13.8-46.2-21.4c417.2-69.3,835.7-129.5,1256.4-183.4c-22.9-22.1-46.8-41.3-73.6-56.7
			c-9.6,7.9-19.1,15.8-29.5,24.4c-18.1-1.6-36.9-3.2-56.5-4.9c0-16.2,0-32,0-49.1c17.6,11.4,35.3,19.5,53.9,25.6
			c1.8-2.4,3.1-4.2,4.7-6.4c-4.5-31.8-12.8-62.8-26.8-92.9c-30.4,53.4-66.6,101.4-113.1,142.2c-2.6-1.6-5.2-3-7.7-4.6
			c-9.4-6.3-17.6-13.9-24.2-23c-1.7-2.3-2.5-6.4-1.7-9.1c5.3-18.3,11-36.5,17-54.6c4.5-13.6,9.6-27.1,14.1-40.7
			c0.5-1.5-0.2-4-1.2-5.5c-3.4-5.1-7.3-9.9-11.7-15.8c-14.3,12.8-28.3,25.3-42.3,37.9c-8.7,40.7-17.4,81.1-26,121
			c-15.5,2.2-30,4.3-45.7,6.5c2.5-11.2,5-22.1,7.5-33.1c-0.3-0.4-0.6-0.7-0.8-1.1c-22.9,14.5-45.8,29-69.9,44.3
			c-5.5-10.4-10.7-20.2-16-30c-18.7,14.6-37.5,29.3-56.5,44.2c-11.8-9.9-19.3-22.8-26.9-36.5c-26.2,15.7-52.2,31.3-79.1,47.4
			c-4.7-11.3-9.2-22-13.4-32.2c-24.2,14.9-48.3,29.7-73.7,45.3c-5.8-11.2-11.1-21.4-16.5-31.8c-21.9,15.5-43.8,30.9-65.8,46.5
			c-9.3-9.3-15.8-19.8-21.4-30.9c-1.1-2.1-0.5-5.3,0-7.8c4.5-19.7,9.2-39.4,14-59.1c2-8.4,4.3-16.6,5.5-25.6
			c-4.8,4.3-9.5,8.6-15,13.5c-14-4.2-24.5-14.5-37.1-22.7c-6.9,6.8-14.7,13.1-20.7,20.8c-3.2,4.2-3.4,10.9-4.6,16.6
			c-3.5,16.7-7.1,33.5-10.3,50.3c-3.2,17-5.9,34-8.8,51.1c-0.2,1-0.5,1.9-0.7,2.8c-15,2.1-29.9,4.2-45.3,6.3
			c2.5-11.4,4.9-22.7,7.6-35.4c-24.5,15.5-48,30.3-72.5,45.8c-5.3-10-10.6-19.9-15.9-30c-18.6,14.5-37.4,29.2-56.5,44.2
			c-11-9.3-18.1-21.1-24.9-32.9c-25.5,14.5-50.7,28.8-76.3,43.4c-8.1-10.1-12.7-21.3-17.8-33.1c-22,16.2-43.9,32.4-66.2,48.9
			c-8.4-8.5-16-17.1-22.1-27c-2.4-3.9-2.7-7.5-1.7-11.8c3.3-15.1,5.8-30.3,9.4-45.3c5.2-21.3,11.2-42.4,16.8-63.6
			c2.4-9,4.6-18,7.1-26.9c0.4-1.4,1.3-2.6,1.9-3.6c14.2-2.1,28.1-4.1,42.8-6.3c-2,8.2-3.8,15.8-5.7,23.4c-4.4,17.5-9.1,35-13.3,52.6
			c-3.8,15.8-7.3,31.6-10.6,47.5c-0.6,2.8,1,6.1,1.7,10.3c16.3-8.6,31.3-16.5,45.7-24.1c9-39,17.9-77.2,26.8-115.7
			c14.4-2.1,28.5-4.2,43.6-6.4c-8.9,44.6-19.7,87.9-27,132.2c15.8-4.2,29.4-11.7,43.6-18.1c4.8-20.4,9.7-40.3,14.1-60.4
			c1.5-6.9,5.7-12,10.3-16.6c15-15.3,30.4-30.3,45.5-45.5c3.3-3.3,7-4.8,11.7-5.3c12.5-1.4,24.9-3.6,37.4-5.4
			c4.7-0.7,9.5-1.4,14.2-2c7.7-0.9,15.4-1.8,24-2.8c-8.6,43.9-19.5,86.7-27.9,130C570,308.1,570.7,308.6,571.5,309.1z M818.3,173.3
			c-4.5,4.2-8.7,7.4-12.1,11.3c-7.4,8.5-16.9,14.9-19,28c-3.6,22.5-9.6,44.7-14.6,67.1c1.4,2.2,2.8,4.4,4.9,7.5
			c14.5-9.4,28.6-18.6,41.6-27c6.7-28.5,13.1-55.4,19.6-83.1C831.5,175.8,824.9,174.5,818.3,173.3z M1083.5,227.2
			c6.9-29.1,13.8-58.1,20.8-87.6c-7.1-1.4-13.8-2.7-20.2-4c-4.8,4.5-9.6,8.1-13.4,12.6c-6.3,7.5-15,12.6-17.1,24
			c-4.2,23-10.1,45.6-15.3,68.5c0.9,1.7,1.8,3.4,3.1,5.9C1055.7,240.1,1069.7,233.6,1083.5,227.2z M483.6,325.7
			c15.4-7.3,29.1-13.7,43.1-20.3c6.8-28.9,13.6-57.8,20.6-87.3c-6.9-1.4-13.4-2.8-20-4.1c-5.4,5-10.9,9.5-15.6,14.7
			c-5.8,6.3-13.7,11.3-14.7,21.1c-0.3,2.5-0.9,4.9-1.5,7.3c-4.4,19.3-8.9,38.7-13.1,58.1C481.8,318.1,483,321.4,483.6,325.7z"/>
		<path fill="#D82032" d="M114.9,88.8c14.1-2.2,27-4.3,39.9-6.3c4.1-0.6,8.2-1.1,12.3-1.6c8.3-1,16.7-2,25.1-3.1
			c13.1-1.7,26.1-3.6,39.2-5.3c4.4-0.6,8.9-0.7,14.4-1.2c3.5,18.3,7,36.8,10.7,55.9c-38.2,3.4-75.2,6.7-112,10
			c-28.4,48.4-52.7,97.8-75.9,148c5.2,28.2,10.3,56.4,15.6,85.4c6.2,1.2,12.3,2.5,18.4,3.5c1.3,0.2,2.9-0.5,4.1-1.3
			c20.1-14.2,40.3-28.3,60.2-42.8c3.1-2.2,5.5-6.2,6.8-9.9c3.2-9.5,5.5-19.4,8.2-29.1c0.2-0.6-0.1-1.3-0.3-2.8
			c-14.1-3-28.3-6-43.5-9.2c4-13,8-26,12-38.7c31.5-4.5,62.1-8.8,93.8-13.3c-22.1,93.5-44,185.9-65.9,278.7
			c-20.7,11.1-41.5,22.3-62.2,33.4c-0.4-0.3-0.8-0.6-1.1-0.9c16-56.8,32-113.7,48-170.5c-0.2-0.1-0.5-0.2-0.7-0.4
			c-20.8,24.3-41.7,48.6-63.5,73.9c-18.4-4.2-37.4-8.5-56.7-12.8c-1.9-7.7-3.9-14.8-5.5-22.1c-3.9-17.7-8.1-35.3-11.5-53
			c-3.3-17.4-4.6-35.3-9.1-52.3c-3.2-12.1,2.9-20.6,6.9-30c6.5-15.4,14.2-30.2,21.5-45.3c9.1-18.7,18-37.4,27.5-55.9
			c12.6-24.6,25.6-48.9,38.5-73.3C111.4,93.6,113.5,91,114.9,88.8z"/>
		<path fill="#D82032" d="M1008.7,19.4c-2.7,6.6-4.9,12-7.1,17.5c-3.9,9.7-6.9,19.9-11.9,28.9c-4.7,8.4-11.6,15.6-17.9,23.7
			c-2.6-2.1-4.2-3.2-5.5-4.5c-5.1-5.2-10.4-10.3-15-15.8c-1.8-2.1-3.3-5.7-2.9-8.3c1.1-7.5,3.1-14.9,5-23
			C971.2,31.8,989.4,25.8,1008.7,19.4z"/>
		<path fill="#07295B" d="M818.3,173.3c6.7,1.3,13.2,2.5,20.3,3.8c-6.5,27.7-12.9,54.7-19.6,83.1c-12.9,8.4-27.1,17.6-41.6,27
			c-2-3.1-3.5-5.3-4.9-7.5c5-22.4,11-44.6,14.6-67.1c2.1-13.1,11.6-19.5,19-28C809.5,180.7,813.8,177.4,818.3,173.3z M789.1,264.7
			c6.7-4.4,12.6-8.2,18.6-12.2c5.2-21.8,10.3-43.5,15.5-65.3c-0.4-0.2-0.7-0.5-1.1-0.7c-4.9,4.8-9.6,9.8-14.6,14.5
			c-4.2,3.9-6.5,8.4-7.6,14C796.7,231.2,792.9,247.3,789.1,264.7z"/>
		<path fill="#07295B" d="M1083.5,227.2c-13.9,6.4-27.9,12.9-42.1,19.5c-1.3-2.5-2.2-4.3-3.1-5.9c5.2-22.9,11.1-45.6,15.3-68.5
			c2.1-11.4,10.8-16.5,17.1-24c3.8-4.5,8.6-8.1,13.4-12.6c6.3,1.2,13,2.6,20.2,4C1097.3,169.1,1090.4,198,1083.5,227.2z
			 M1054.9,226.8c6.5-3.1,12.1-5.8,18-8.6c5.4-22.9,10.8-45.9,16.5-69.9c-7.5,7.4-14.2,13.8-20.6,20.3c-1.1,1.1-1.4,3-1.8,4.5
			C1063,190.7,1059.1,208.3,1054.9,226.8z"/>
		<path fill="#07295B" d="M483.6,325.7c-0.6-4.4-1.8-7.6-1.2-10.5c4.1-19.4,8.7-38.7,13.1-58.1c0.5-2.4,1.2-4.8,1.5-7.3
			c1-9.8,8.9-14.8,14.7-21.1c4.8-5.2,10.3-9.7,15.6-14.7c6.6,1.3,13.1,2.7,20,4.1c-7,29.5-13.8,58.4-20.6,87.3
			C512.7,312,499,318.5,483.6,325.7z M531.6,228.2c-0.3-0.2-0.6-0.4-0.9-0.6c-2.1,2-4.2,4-6.4,5.9c-9.1,8.1-17,16.8-17.5,29.9
			c-0.1,1.6-0.7,3.2-1.1,4.8c-2.7,12.1-5.3,24.2-8.1,37c6.5-3.1,12.3-5.9,17.9-8.5C520.9,273.7,526.2,250.9,531.6,228.2z"/>
	</g>
</g>
</svg>
